<svg width="16" height="12" viewBox="0 0 16 12" fill="none" xmlns="http://www.w3.org/2000/svg">
<path d="M15.3652 6.56L10.3852 11.56C10.2252 11.72 10.0251 11.8 9.82515 11.8C9.62515 11.8 9.42515 11.72 9.26515 11.56C8.94515 11.24 8.94515 10.74 9.26515 10.42L12.8852 6.78H1.20515C0.765151 6.78 0.405151 6.42 0.405151 5.98C0.405151 5.54 0.765151 5.18 1.20515 5.18H12.8852L9.26515 1.54001C8.94515 1.22001 8.94515 0.720004 9.26515 0.400004C9.58515 0.0800037 10.0852 0.0800037 10.4052 0.400004L15.3852 5.4C15.6852 5.74 15.6852 6.26 15.3652 6.56Z" fill="black"/>
</svg>
